<svg xmlns="http://www.w3.org/2000/svg" viewBox="177.16 414.11 656.93 214.04"><path d="M608.605 432.031c1.933.113 3.837.745 5.549 1.636 1.507.785 2.464 1.825 2.885 3.519 1.971 7.947-11.37 18.451-15.141 25.017q-.147.26-.292.521c1.25 2.956 2.53 5.75 4.172 8.512 7.918-3.152 15.724-6.638 23.558-9.995 2.799-4.101 5.488-8.029 9.615-10.923 3.182 1.494 6.112 3.002 8.574 5.59 1.856 1.951 3.589 4.84 3.792 7.591.355 4.827-3.529 11.691-4.856 16.46-1.096 3.935-1.766 8.31-1.759 12.4.004 2.381.185 5.262 2.202 6.892 1.364 1.102 3.271 1.324 4.962 1.179 7.577-.65 14.121-10.51 18.543-16.007.082-5.875 2.205-11.71 4.92-16.861 5.805-11.009 16.594-23.416 28.995-26.954 11.8-3.366 19.166 5.03 28.514 10.029 8.588 4.593 17.209 3.186 26.072.512 2.926-4.468 6.925-10.833 11.844-13.203 1.812-.874 3.783-.982 5.675-.289 5.448 1.994 9.85 9.594 12.064 14.704-1.592 5.591-4.714 11.077-7.267 16.29 7.77-6.841 16.553-14.823 26.767-17.616 3.898-1.065 8.994-1.362 12.547.917 9.403 6.032-1.741 28.496-2.164 37.424-.379 8.002 6.825 11.993 10.713 18.068 2.079 3.247 3.083 7.323 3.798 11.076 2.605 13.676 1.31 26.535-6.813 38.218-21.879 31.47-71.853 26.101-105.158 23.78-37.965-2.647-75.767-7.386-113.689-10.503-90.116-7.405-185.967-8.638-274.578 11.205-22.49 5.036-44.867 11.409-65.87 21.034-14.852 6.805-36.45 22.979-51.01 25.445-4.967.842-10.167.711-14.337-2.457-3.411-2.592-6.097-6.99-6.654-11.253-.625-4.781 1.174-9.422 4.082-13.158 7.969-10.238 23.559-14.702 35.32-18.886 47.01-16.724 96.521-25.71 145.845-32.299 11.586-.956 23.156-2.686 34.765-3.678a959 959 0 0 1 68.71-3.139 1618 1618 0 0 1 141.915 5.556c27.951 2.18 55.838 5.065 83.805 7.088a895 895 0 0 0 36.855 2.048c19.176.698 46.603 3.145 61.947-10.656 3.314-2.981 5.94-6.99 7.213-11.262 4.64-15.585-9.736-25.816-13.957-39.306-2.185-6.985-1.02-15.261-.742-22.507-12.601 5.799-23.325 15.78-33.513 24.979-4.215 3.806-8.537 8.179-13.407 11.123-3.351-2.238-5.84-4.477-7.316-8.323-4.33-11.284 4.824-30.127 9.692-40.563-7.509 1.162-14.054 1.599-21.661.82 1.179 3.842 2.089 7.497 2.186 11.541.231 9.632-4.263 19.01-10.936 25.807-6.405 6.524-15.362 11.402-24.665 11.38-11.608-.027-20.072-6.352-27.872-14.261-3.325 4.154-6.99 7.903-11.544 10.71-5.842 3.6-12.807 5.282-19.562 3.533-6.085-1.576-11.124-5.812-14.188-11.245-4.829-8.56-4.007-19.059-1.564-28.217-5.594 3.068-10.826 6.387-16.019 10.083 1.636 4.83 2.678 10.003 1.826 15.099a21.32 21.32 0 0 1-9.235 14.114c-4.418 2.955-10.189 4.168-15.407 3.058-6.379-1.358-10.168-5.859-13.476-11.078-4.842 2.927-9.59 5.131-15.417 4.748-8.356-.549-13.62-5.788-18.786-11.723a62 62 0 0 1-2.648 3.117c-7.034 7.603-16.566 13.936-27.178 14.368-6.702.273-13.057-1.756-17.955-6.449-5.144-4.929-7.378-11.886-7.479-18.876-.246-17.067 8.502-32.301 20.088-44.204 4.146 1.45 8.589 3.521 10.847 7.506 3.813 6.73-5.226 24.534-7.19 31.848-.88 3.275-2.131 9.194.051 12.126.828 1.112 1.656 1.549 3.021 1.738 8.315 1.149 24.16-15.383 27.812-22.071 5.947-10.892 4.279-21.873 16.691-30.306q.26-.174.52-.345a41 41 0 0 1 4.376 1.925c2.441 1.234 5.546 3.064 6.531 5.786 3.506 9.688-12.488 35.557-8.881 43.18.509 1.077 1.332 1.718 2.496 1.982 5.827 1.319 22.129-13.348 27.28-17.071-2.102-3.939-4.509-8.031-5.946-12.267-1.769-5.213-1.681-10.142.818-15.11 4.993-9.923 15.497-16.669 25.679-20.221m90.341 64.746c9.449-5.159 16.093-13.507 19.109-23.88 1.118-3.847 2.322-9.417.132-13.032-1.032-1.704-3.092-3.518-5.084-3.911-.21-.041-.426-.049-.639-.073a51.55 51.55 0 0 0-20.097 33.743c-.316 2.106-.519 4.402.871 6.175.704.898 2.115 1.453 3.254 1.479.864.02 1.644-.243 2.454-.501m-431.278-82.672c2.822.376 5.3 1.087 7.805 2.481 4.546 2.529 6.837 6.22 8.227 11.108-2.065 9.637-7.379 18.896-11.575 27.777-2.437 5.158-4.629 10.412-6.978 15.608 9.343-6.449 17.917-15.974 28.651-20.114 3.212-1.239 6.922-1.853 10.135-.281 4.057 1.984 5.194 5.763 6.643 9.697-2.525 6.939-7.283 16.671-5.106 24.036.722 2.442 2.726 4.517 4.953 5.677 1.703.888 3.637 1.311 5.472.566.966-.391 1.67-1.129 1.925-2.132 1.051-4.133-.151-10.46 1.539-16.368 3.821-13.36 16.618-27.744 28.732-34.258 4.732-2.544 10.182-4.254 15.488-2.496 5.07 1.679 8.653 6.217 10.765 10.942 7.211 16.134-6.908 32.14-19.052 41.218-3.291 2.461-12.261 6.546-13.621 10.155l.546.986c1.72.771 3.238.805 5.103.884 9.617-1.766 17.426-5.304 25.213-11.215 1.908-1.449 4.62-4.172 7.094-3.938l.418.904c-.363 5.384-4.609 10.626-8.448 14.137-7.609 6.957-17.93 12.145-28.437 11.61-8.945-.456-15.073-4.659-20.893-11.098-8.141 1.67-15.759 2.409-23.259-2.146-8.117-4.93-11.665-13.289-13.872-22.089-7.502 6.646-14.664 13.865-21.487 21.206-5.149 5.54-10.3 12.217-16.395 16.726-1.918 1.419-3.684 2.483-6.151 2.025-3.526-.655-5.663-3.714-7.623-6.423-.136-17.588 23.383-82.545 34.188-95.185m72.746 65.996c5.987-4.571 19.095-16.234 20.134-24.146.129-.985.028-1.554-.266-2.479-.833-.787-.944-.906-2.059-1.117-8.478 7.492-16.994 16.254-19.041 27.879.887.184.479.249 1.232-.137"/><path d="M484.304 419.706c7.084-.55 15.397-.616 21.184 4.13 1.227 1.007 1.89 1.944 2.037 3.569-3.169 11.267-39.502 8.901-46.187 13.492-6.278 4.313-8.5 15.537-9.549 22.59 6.126-1.361 25.02-8.539 29.861-7.061 1.313.401 2.295 1.248 3.01 2.402.848 1.372 1.2 3.08.8 4.657-2.499 9.862-30.149 9.643-36.171 13.963-.182.131-.354.275-.532.412-2.895 9.341-2.736 19.688-6.818 28.674-1.088 2.396-2.391 4.917-5.051 5.761-2.489.789-5.692-.918-7.663-2.273-6.309-4.336-10.154-10.71-11.388-18.248-3.205-19.581 7.221-38.25 14.757-55.51 1.265-2.898 2.136-8.419 4.014-10.705.707-.86 44.078-5.529 47.696-5.853m-247.933-.996c4.908-.612 12.456-.141 16.549 2.8 1.271.914 2.309 2.164 2.399 3.797.081 1.451-.618 2.803-1.569 3.851-5.036 5.556-16.616 5.987-23.545 6.549-2.576 5.195-4.356 11.022-6.336 16.481a647 647 0 0 0-11.443 33.856c-2.037 6.755-3.346 22.253-7.123 27.037-.93.537-1.641.907-2.733.963-5.172.267-10.706-4.064-14.438-7.308-.805-1.1-1.714-2.257-2.24-3.522-5.01-12.048 10.482-50.616 15.431-62.588-4.862-.516-9.973-.883-14.343-3.277-3.93-2.152-8.745-7.085-9.691-11.599-.289-1.379-.069-1.964.612-3.151 4.965-2.196 15.43.178 21.243-.141 12.45-.683 24.823-2.502 37.227-3.748m421.3 2.194c.679.036.768.008 1.524.237 2.839.857 5.72 3.304 6.906 6.022 1.486 3.403 1.335 7.43-.079 10.825-2.736 6.566-8.783 9.352-14.902 11.947-.602-.082-.532-.06-1.227-.229-3.333-.809-5.83-3.715-7.414-6.629-1.467-2.699-1.685-5.56-.657-8.452 2.439-6.855 9.678-10.801 15.849-13.721"/></svg>